<?xml version="1.0" standalone="no"?>
<!DOCTYPE svg PUBLIC "-//W3C//DTD SVG 20010904//EN"
 "http://www.w3.org/TR/2001/REC-SVG-20010904/DTD/svg10.dtd">
<svg version="1.0" xmlns="http://www.w3.org/2000/svg"
 width="256.000000pt" height="256.000000pt" viewBox="0 0 256.000000 256.000000"
 preserveAspectRatio="xMidYMid meet">
<metadata>
Created by potrace 1.14, written by Peter Selinger 2001-2017
</metadata>
<g transform="translate(0.000000,256.000000) scale(0.100000,-0.100000)"
fill="#000000" stroke="none">
<path d="M1644 2095 c-246 -53 -385 -255 -337 -489 17 -83 67 -190 102 -217
21 -17 27 -18 45 -6 30 20 31 49 2 91 -46 68 -69 159 -63 247 4 70 9 85 44
136 66 100 179 156 313 155 232 -1 428 -216 415 -456 -2 -37 -7 -76 -10 -87
-3 -10 -8 -28 -11 -40 -10 -37 44 -20 80 24 29 36 31 45 32 122 3 148 -61 293
-173 395 -68 63 -154 107 -242 126 -80 17 -117 17 -197 -1z"/>
<path d="M1645 1821 c-22 -11 -47 -26 -55 -33 -59 -51 -78 -155 -45 -258 7
-24 39 -31 62 -15 15 11 18 28 18 94 0 74 2 83 27 107 21 21 39 28 80 31 67 5
130 -26 173 -87 26 -36 30 -50 30 -108 0 -55 -5 -75 -27 -112 -50 -83 -60 -91
-112 -95 -42 -3 -51 1 -73 26 -57 63 -156 58 -196 -10 l-16 -27 -133 -2 c-206
-3 -218 8 -218 191 0 102 -2 116 -21 133 -19 17 -23 17 -47 3 -27 -15 -27 -16
-32 -144 -3 -72 -9 -136 -13 -143 -5 -6 -22 -19 -38 -28 -38 -19 -79 -11 -110
22 -23 25 -24 31 -26 211 -1 166 -3 186 -20 199 -24 18 -48 17 -64 -2 -10 -13
-14 -60 -14 -193 -1 -192 -6 -210 -56 -237 -38 -19 -79 -11 -109 21 -22 23
-24 34 -25 151 -1 112 -3 128 -20 140 -24 18 -40 18 -59 -2 -18 -17 -18 -18
-18 -154 -1 -110 -9 -133 -53 -155 -42 -19 -53 -19 -92 5 -24 14 -33 28 -38
57 -12 73 -15 83 -36 93 -16 9 -26 8 -45 -5 -19 -12 -24 -24 -24 -58 -1 -68
-42 -103 -125 -106 -59 -2 -82 -19 -66 -49 8 -16 23 -20 76 -24 83 -5 106 -25
113 -98 10 -108 102 -98 102 12 0 21 10 39 31 59 33 31 63 36 102 18 42 -19
51 -47 53 -160 2 -128 7 -155 35 -162 52 -14 63 11 64 155 1 115 11 148 52
167 39 18 71 13 105 -18 l32 -29 1 -186 c0 -113 5 -190 11 -196 19 -19 52 -19
70 1 15 16 17 41 17 191 -1 126 3 180 13 199 26 52 110 62 150 17 16 -17 20
-42 24 -151 5 -128 6 -132 30 -144 20 -10 29 -10 45 1 18 12 21 27 25 144 7
180 2 176 196 180 l146 4 33 -35 c19 -20 48 -38 65 -42 43 -9 96 11 125 49
l25 33 156 2 157 2 -46 -53 c-110 -130 -148 -225 -153 -391 -3 -94 -7 -115
-30 -157 -54 -99 -178 -152 -302 -128 -145 27 -211 123 -198 284 5 58 3 75
-10 88 -37 37 -70 8 -80 -70 -21 -169 42 -301 171 -360 90 -41 167 -50 259
-30 125 28 223 109 262 217 9 26 17 86 19 149 5 152 30 213 155 369 47 59 76
88 86 84 8 -3 14 -10 15 -17 0 -6 8 -49 19 -96 l18 -85 -24 -35 c-33 -49 -39
-91 -20 -132 20 -41 62 -68 108 -68 41 1 69 16 98 53 33 41 24 111 -19 149
-17 15 -38 28 -45 28 -14 0 -28 49 -52 175 -11 55 -9 61 49 138 48 62 54 67
90 67 53 0 93 26 112 73 19 47 13 82 -19 119 -83 94 -236 11 -204 -110 8 -30
5 -38 -31 -85 -79 -103 -66 -97 -205 -97 l-124 0 31 58 c29 51 32 65 32 142 0
75 -3 91 -29 138 -51 92 -134 143 -241 149 -55 3 -78 0 -110 -16z"/>
<path d="M1757 1182 c-42 -44 -70 -138 -92 -307 -7 -58 -30 -111 -52 -119 -8
-4 -27 0 -41 7 -25 11 -27 18 -28 72 -1 82 -1 83 -24 90 -31 10 -58 -12 -67
-53 -23 -112 29 -197 126 -207 95 -9 158 61 176 195 20 139 27 172 57 250 12
30 28 65 36 78 14 21 13 22 -25 22 -30 0 -46 -7 -66 -28z"/>
</g>
</svg>
